<svg width="1559" height="603" viewBox="0 0 1559 603" fill="none" xmlns="http://www.w3.org/2000/svg">
<path d="M1534.28 55.5066C1531.28 82.5065 1498.78 82.5064 1498.78 82.5064C1493.52 83.0194 1488.3 83.0568 1483.28 82.6872M1534.28 55.5066C1533.57 -7.47536 995.879 -11.5163 821.5 26.5064C688.5 55.5065 6.05689 -40.9936 2.04812 26.5064M1534.28 55.5066C1518.53 254.285 1524.26 363.56 1556.78 555.506M2.04812 26.5064C0.791144 47.6714 24.3721 55.5105 48.0596 58.1526M2.04812 26.5064C20.2593 222.853 20.6037 332.208 4.04812 526.007M91.0481 44.0065C42.0936 220.969 76.8018 517.566 104.57 523.006M91.0481 44.0065C83.7402 23.2139 73.8378 17.8319 48.0596 17.0065V58.1526M91.0481 44.0065C81 54.1526 65.7819 60.1294 48.0596 58.1526M104.57 523.006C106.709 532.419 73.9938 547.09 61.07 544.506C59.8297 544.259 68.9034 521.719 68.07 501.506M104.57 523.006C104.94 522.086 101.538 507.599 68.07 501.506M4.04812 526.007C4.04812 526.007 34.6025 495.414 68.07 501.506M4.04812 526.007C-11.4292 635.006 588.5 604.153 724 563.506C859.5 522.86 1542.85 619.392 1556.78 555.506M1556.78 555.506C1551.57 529.704 1527.79 516.481 1503.3 520.013M1460.78 547.506C1489.41 351.502 1484.54 244.261 1440 58.0064M1460.78 547.506C1473.9 564.082 1483.8 565.104 1506.8 563.506L1503.3 520.013M1460.78 547.506C1472.29 531.05 1487.93 522.23 1503.3 520.013M1440 58.0064C1444.58 50.7649 1450.74 40.8187 1483.28 44.0065V82.6872M1440 58.0064C1440.72 70.4284 1459.91 80.967 1483.28 82.6872" stroke="url(#paint0_linear_162_62)" stroke-width="4"/>
<defs>
<linearGradient id="paint0_linear_162_62" x1="416.774" y1="-2.84735" x2="416.774" y2="579.686" gradientUnits="userSpaceOnUse">
<stop stop-color="#F1E2B7"/>
<stop offset="1" stop-color="#D0A05C"/>
</linearGradient>
</defs>
</svg>
